<svg width="48" height="48" xmlns="http://www.w3.org/2000/svg" shape-rendering="crispEdges">
<rect width="48" height="48" fill="#6c2ea4"/>
<path fill="none" stroke="#d79dff" transform="translate(0,1)scale(2)" d="M0 0h24M0 1h18m1 0h3m1 0h1M0 2h24M0 3h8m1 0h3m1 0h3m1 0h1m1 0h1m1 0h1m1 0h1M0 4h24M0 5h6m1 0h3m1 0h3m1 0h1m1 0h1m1 0h1m1 0h1m1 0h1M0 6h17m1 0h3m1 0h2M1 7h3m1 0h1m1 0h1m1 0h1m1 0h1m1 0h1m1 0h1m1 0h1m1 0h1m1 0h1m1 0h1M0 8h15m1 0h3m1 0h3M0 9h2m1 0h1m1 0h1m1 0h1m1 0h1m1 0h1m1 0h1m1 0h1m1 0h1m1 0h1m1 0h1m1 0h1M0 10h5m1 0h3m1 0h3m1 0h1m1 0h1m1 0h1m1 0h1m1 0h1M1 11h1m1 0h1m1 0h1m1 0h1m1 0h1m1 0h1m1 0h1m1 0h1m1 0h1m1 0h1m3 0h1M0 12h3m1 0h3m1 0h3m1 0h1m1 0h1m1 0h1m1 0h1m1 0h1m1 0h1M1 13h1m1 0h1m1 0h1m1 0h1m1 0h1m1 0h1m1 0h1m1 0h1m1 0h1m3 0h1M0 14h1m1 0h1m1 0h1m1 0h1m1 0h1m1 0h1m1 0h1m1 0h1m1 0h1m1 0h1m1 0h1m1 0h1M1 15h1m1 0h1m1 0h1m1 0h1m3 0h1m3 0h1M0 16h1m1 0h1m1 0h1m1 0h1m1 0h1m1 0h1m1 0h1m1 0h1m1 0h1m1 0h1m1 0h1m1 0h1M1 17h1m1 0h1m1 0h1m3 0h1m3 0h1M0 18h1m1 0h1m1 0h1m1 0h1m1 0h1m1 0h1m1 0h1m1 0h1m1 0h1m1 0h1m3 0h1M3 19h1M0 20h1m1 0h1m1 0h1m1 0h1m1 0h1m1 0h1m1 0h1m1 0h1m1 0h1m3 0h1M1 21h1M0 22h1m1 0h1m1 0h1m1 0h1m3 0h1m3 0h1"/>
</svg>